<mxfile host="app.diagrams.net" modified="2022-05-01T20:20:10.252Z" agent="5.0 (Windows NT 10.0; Win64; x64) AppleWebKit/537.36 (KHTML, like Gecko) Chrome/100.0.4896.127 Safari/537.36" etag="beFjmYg6NMIM7i9AT3g8" version="17.5.0" type="github">
  <diagram id="V1DcwHg9O7BHA0kkWs9D" name="Page-1">
    <mxGraphModel dx="631" dy="739" grid="1" gridSize="10" guides="1" tooltips="1" connect="1" arrows="1" fold="1" page="1" pageScale="1" pageWidth="850" pageHeight="1100" math="1" shadow="0">
      <root>
        <mxCell id="0" />
        <mxCell id="1" parent="0" />
        <mxCell id="nBs-DhYhoKuDLxI8BUI--1" value="&lt;font style=&quot;font-size: 30px&quot; color=&quot;#069968&quot;&gt;? ALLOW,&lt;br&gt;&amp;nbsp; &amp;nbsp; &amp;nbsp; &amp;nbsp; &amp;nbsp; &amp;nbsp; as INITIALIZATION.&amp;nbsp;&lt;br&gt;&amp;nbsp; &amp;nbsp; &amp;nbsp; (GENESIS)&lt;br&gt;the ESTIMATE&lt;br&gt;&lt;br&gt;&lt;/font&gt;" style="text;html=1;align=center;verticalAlign=middle;resizable=0;points=[];autosize=1;strokeColor=none;fillColor=none;" parent="1" vertex="1">
          <mxGeometry x="35" y="115" width="390" height="110" as="geometry" />
        </mxCell>
        <mxCell id="nBs-DhYhoKuDLxI8BUI--2" value="$$([x][a])_0\leftarrow [y][a]$$" style="text;html=1;align=center;verticalAlign=middle;resizable=0;points=[];autosize=1;strokeColor=none;fillColor=none;fontSize=30;fontColor=#069968;" parent="1" vertex="1">
          <mxGeometry x="70" y="230" width="400" height="40" as="geometry" />
        </mxCell>
        <mxCell id="nBs-DhYhoKuDLxI8BUI--3" value="$$\partial_+ \equiv EXCEDENT$$" style="text;html=1;align=center;verticalAlign=middle;resizable=0;points=[];autosize=1;strokeColor=none;fillColor=none;fontSize=30;fontColor=#069968;" parent="1" vertex="1">
          <mxGeometry x="20" y="380" width="470" height="40" as="geometry" />
        </mxCell>
        <mxCell id="nBs-DhYhoKuDLxI8BUI--4" value="$$\partial_- \equiv DEFICIT$$" style="text;html=1;align=center;verticalAlign=middle;resizable=0;points=[];autosize=1;strokeColor=none;fillColor=none;fontSize=30;fontColor=#069968;" parent="1" vertex="1">
          <mxGeometry x="22" y="428" width="410" height="40" as="geometry" />
        </mxCell>
        <mxCell id="nBs-DhYhoKuDLxI8BUI--5" value="RAPORTATE la&lt;br&gt;CONFIGURATIA&lt;br&gt;OPTIMA la&lt;br&gt;PRECEDENTA&lt;br&gt;GENERATIE" style="text;html=1;align=center;verticalAlign=middle;resizable=0;points=[];autosize=1;strokeColor=none;fillColor=none;fontSize=30;fontColor=#069968;" parent="1" vertex="1">
          <mxGeometry x="210" y="523" width="240" height="190" as="geometry" />
        </mxCell>
        <mxCell id="nBs-DhYhoKuDLxI8BUI--6" value="" style="endArrow=none;html=1;rounded=0;fontSize=30;fontColor=#069968;strokeColor=#069968;entryX=0.996;entryY=-0.003;entryDx=0;entryDy=0;entryPerimeter=0;startArrow=none;" parent="1" source="nBs-DhYhoKuDLxI8BUI--7" target="nBs-DhYhoKuDLxI8BUI--5" edge="1">
          <mxGeometry width="50" height="50" relative="1" as="geometry">
            <mxPoint x="210" y="523" as="sourcePoint" />
            <mxPoint x="430" y="523" as="targetPoint" />
          </mxGeometry>
        </mxCell>
        <mxCell id="nBs-DhYhoKuDLxI8BUI--9" value="" style="shape=waypoint;sketch=0;fillStyle=solid;size=6;pointerEvents=1;points=[];fillColor=none;resizable=0;rotatable=0;perimeter=centerPerimeter;snapToPoint=1;fontSize=30;fontColor=#069968;strokeColor=#069968;" parent="1" vertex="1">
          <mxGeometry x="305" y="503" width="40" height="40" as="geometry" />
        </mxCell>
        <mxCell id="nBs-DhYhoKuDLxI8BUI--7" value="" style="shape=waypoint;sketch=0;fillStyle=solid;size=6;pointerEvents=1;points=[];fillColor=none;resizable=0;rotatable=0;perimeter=centerPerimeter;snapToPoint=1;fontSize=30;fontColor=#069968;strokeColor=#069968;" parent="1" vertex="1">
          <mxGeometry x="358" y="503" width="40" height="40" as="geometry" />
        </mxCell>
        <mxCell id="nBs-DhYhoKuDLxI8BUI--10" value="" style="endArrow=none;html=1;rounded=0;fontSize=30;fontColor=#069968;strokeColor=#069968;entryDx=0;entryDy=0;entryPerimeter=0;" parent="1" target="nBs-DhYhoKuDLxI8BUI--7" edge="1">
          <mxGeometry width="50" height="50" relative="1" as="geometry">
            <mxPoint x="210" y="523" as="sourcePoint" />
            <mxPoint x="449.03999999999996" y="522.4300000000001" as="targetPoint" />
            <Array as="points">
              <mxPoint x="295" y="523" />
            </Array>
          </mxGeometry>
        </mxCell>
        <mxCell id="nBs-DhYhoKuDLxI8BUI--12" value="" style="endArrow=none;html=1;rounded=0;fontSize=30;fontColor=#069968;strokeColor=#069968;dashed=1;" parent="1" edge="1">
          <mxGeometry width="50" height="50" relative="1" as="geometry">
            <mxPoint x="324.5" y="518" as="sourcePoint" />
            <mxPoint x="324.5" y="460" as="targetPoint" />
          </mxGeometry>
        </mxCell>
        <mxCell id="nBs-DhYhoKuDLxI8BUI--13" value="" style="endArrow=none;html=1;rounded=0;fontSize=30;fontColor=#069968;strokeColor=#069968;dashed=1;entryX=0.786;entryY=1.136;entryDx=0;entryDy=0;entryPerimeter=0;" parent="1" edge="1">
          <mxGeometry width="50" height="50" relative="1" as="geometry">
            <mxPoint x="378.5" y="518" as="sourcePoint" />
            <mxPoint x="379.70000000000005" y="417.44000000000005" as="targetPoint" />
          </mxGeometry>
        </mxCell>
        <mxCell id="nBs-DhYhoKuDLxI8BUI--14" value="$$\phi : \partial_+ v= 0$$" style="text;html=1;align=center;verticalAlign=middle;resizable=0;points=[];autosize=1;strokeColor=none;fillColor=none;fontSize=30;fontColor=#069968;" parent="1" vertex="1">
          <mxGeometry x="450" y="388" width="350" height="40" as="geometry" />
        </mxCell>
        <mxCell id="nBs-DhYhoKuDLxI8BUI--15" value="$$\psi : \partial_+d=0$$" style="text;html=1;align=center;verticalAlign=middle;resizable=0;points=[];autosize=1;strokeColor=none;fillColor=none;fontSize=30;fontColor=#069968;" parent="1" vertex="1">
          <mxGeometry x="460" y="463" width="330" height="40" as="geometry" />
        </mxCell>
        <mxCell id="nBs-DhYhoKuDLxI8BUI--17" value="$$\aleph : \exists \aleph([x],[y])$$" style="text;html=1;align=center;verticalAlign=middle;resizable=0;points=[];autosize=1;strokeColor=none;fillColor=none;fontSize=30;fontColor=#069968;" parent="1" vertex="1">
          <mxGeometry x="418" y="525" width="460" height="40" as="geometry" />
        </mxCell>
        <mxCell id="nBs-DhYhoKuDLxI8BUI--18" value="" style="shape=curlyBracket;whiteSpace=wrap;html=1;rounded=1;fontSize=30;fontColor=#069968;strokeColor=#069968;" parent="1" vertex="1">
          <mxGeometry x="510" y="380" width="20" height="200" as="geometry" />
        </mxCell>
        <mxCell id="nBs-DhYhoKuDLxI8BUI--19" value="" style="shape=waypoint;sketch=0;fillStyle=solid;size=6;pointerEvents=1;points=[];fillColor=none;resizable=0;rotatable=0;perimeter=centerPerimeter;snapToPoint=1;fontSize=30;fontColor=#069968;strokeColor=#FF0000;" parent="1" vertex="1">
          <mxGeometry x="640" y="330" width="40" height="40" as="geometry" />
        </mxCell>
        <mxCell id="nBs-DhYhoKuDLxI8BUI--20" value="" style="shape=waypoint;sketch=0;fillStyle=solid;size=6;pointerEvents=1;points=[];fillColor=none;resizable=0;rotatable=0;perimeter=centerPerimeter;snapToPoint=1;fontSize=30;fontColor=#069968;strokeColor=#FF0000;" parent="1" vertex="1">
          <mxGeometry x="640" y="423" width="40" height="40" as="geometry" />
        </mxCell>
        <mxCell id="nBs-DhYhoKuDLxI8BUI--21" value="" style="shape=waypoint;sketch=0;fillStyle=solid;size=6;pointerEvents=1;points=[];fillColor=none;resizable=0;rotatable=0;perimeter=centerPerimeter;snapToPoint=1;fontSize=30;fontColor=#069968;strokeColor=#FF0000;" parent="1" vertex="1">
          <mxGeometry x="640" y="590" width="40" height="40" as="geometry" />
        </mxCell>
        <mxCell id="nBs-DhYhoKuDLxI8BUI--22" value="" style="shape=partialRectangle;whiteSpace=wrap;html=1;bottom=1;right=1;left=1;top=0;fillColor=none;routingCenterX=-0.5;fontSize=30;fontColor=#069968;strokeColor=#FF0000;" parent="1" vertex="1">
          <mxGeometry x="600" y="565" width="150" height="15" as="geometry" />
        </mxCell>
        <mxCell id="nBs-DhYhoKuDLxI8BUI--23" value="&lt;font color=&quot;#ff0000&quot; style=&quot;font-size: 15px&quot;&gt;VOLUM SPATIAL&lt;/font&gt;" style="text;html=1;align=center;verticalAlign=middle;resizable=0;points=[];autosize=1;strokeColor=none;fillColor=none;fontSize=30;fontColor=#069968;" parent="1" vertex="1">
          <mxGeometry x="660" y="320" width="130" height="50" as="geometry" />
        </mxCell>
        <mxCell id="nBs-DhYhoKuDLxI8BUI--24" value="distanta de trunk" style="text;html=1;align=center;verticalAlign=middle;resizable=0;points=[];autosize=1;strokeColor=none;fillColor=none;fontSize=15;fontColor=#FF0000;" parent="1" vertex="1">
          <mxGeometry x="660" y="433" width="130" height="20" as="geometry" />
        </mxCell>
        <mxCell id="nBs-DhYhoKuDLxI8BUI--25" value="EXISTENTA&lt;br&gt;&amp;nbsp;FERESTREI&lt;br&gt;AUTO-POIESICE" style="text;html=1;align=center;verticalAlign=middle;resizable=0;points=[];autosize=1;strokeColor=none;fillColor=none;fontSize=15;fontColor=#FF0000;" parent="1" vertex="1">
          <mxGeometry x="640" y="600" width="130" height="60" as="geometry" />
        </mxCell>
        <mxCell id="nBs-DhYhoKuDLxI8BUI--26" value="" style="endArrow=none;dashed=1;html=1;rounded=0;fontSize=15;fontColor=#FF0000;strokeColor=#FF0000;entryX=-0.005;entryY=0.599;entryDx=0;entryDy=0;entryPerimeter=0;" parent="1" target="nBs-DhYhoKuDLxI8BUI--23" edge="1">
          <mxGeometry width="50" height="50" relative="1" as="geometry">
            <mxPoint x="640" y="400" as="sourcePoint" />
            <mxPoint x="690" y="350" as="targetPoint" />
          </mxGeometry>
        </mxCell>
        <mxCell id="nBs-DhYhoKuDLxI8BUI--28" value="" style="endArrow=none;dashed=1;html=1;rounded=0;fontSize=15;fontColor=#FF0000;strokeColor=#FF0000;entryX=-0.013;entryY=0.611;entryDx=0;entryDy=0;entryPerimeter=0;" parent="1" target="nBs-DhYhoKuDLxI8BUI--24" edge="1">
          <mxGeometry width="50" height="50" relative="1" as="geometry">
            <mxPoint x="650" y="468" as="sourcePoint" />
            <mxPoint x="700" y="418" as="targetPoint" />
          </mxGeometry>
        </mxCell>
        <mxCell id="nBs-DhYhoKuDLxI8BUI--29" value="" style="endArrow=none;dashed=1;html=1;rounded=0;fontSize=15;fontColor=#FF0000;strokeColor=#FF0000;exitX=0.154;exitY=0.167;exitDx=0;exitDy=0;exitPerimeter=0;" parent="1" source="nBs-DhYhoKuDLxI8BUI--25" edge="1">
          <mxGeometry width="50" height="50" relative="1" as="geometry">
            <mxPoint x="560" y="630" as="sourcePoint" />
            <mxPoint x="610" y="580" as="targetPoint" />
          </mxGeometry>
        </mxCell>
      </root>
    </mxGraphModel>
  </diagram>
</mxfile>
